name ./resultDataOpenSim/trcMotMarkerGrf/sub10/grf-04-06.mot
datacolumns 19
datarows 17
range 0.99200000 1.05600000
endheader

                time	     ground_force_vx	     ground_force_vy	     ground_force_vz	     ground_force_px	     ground_force_py	     ground_force_pz	   l_ground_force_vx	   l_ground_force_vy	   l_ground_force_vz	   l_ground_force_px	   l_ground_force_py	   l_ground_force_pz	     ground_torque_x	     ground_torque_y	     ground_torque_z	   l_ground_torque_x	   l_ground_torque_y	   l_ground_torque_z	
          0.99200000	          0.00000000	          0.00000000	          0.00000000	          0.00000000	          0.00000000	          0.00000000	          4.69888665	        297.82761825	         16.98905505	          0.01681182	         -0.07499999	         -0.11118813	          0.00000000	          0.00000000	          0.00000000	          0.00000000	         -1.82662260	          0.00000000	
          0.99600000	          0.00000000	          0.00000000	          0.00000000	          0.00000000	          0.00000000	          0.00000000	          6.23783469	        301.54177773	         17.36030092	          0.01700919	         -0.07499999	         -0.11085879	          0.00000000	          0.00000000	          0.00000000	          0.00000000	         -1.92309135	          0.00000000	
          1.00000000	          0.00000000	          0.00000000	          0.00000000	          0.00000000	          0.00000000	          0.00000000	          7.93548550	        307.30872346	         17.87970133	          0.01727265	         -0.07499999	         -0.11051363	          0.00000000	          0.00000000	          0.00000000	          0.00000000	         -2.03837185	          0.00000000	
          1.00400000	          0.00000000	          0.00000000	          0.00000000	          0.00000000	          0.00000000	          0.00000000	          9.76664553	        315.12274461	         18.54113636	          0.01757156	         -0.07499999	         -0.11017666	          0.00000000	          0.00000000	          0.00000000	          0.00000000	         -2.17518875	          0.00000000	
          1.00800000	          0.00000000	          0.00000000	          0.00000000	          0.00000000	          0.00000000	          0.00000000	         11.66222936	        324.95329323	         19.33582309	          0.01793594	         -0.07499999	         -0.10983369	          0.00000000	          0.00000000	          0.00000000	          0.00000000	         -2.33466914	          0.00000000	
          1.01200000	          0.00000000	          0.00000000	          0.00000000	          0.00000000	          0.00000000	          0.00000000	         13.50468216	        336.80448841	         20.24256211	          0.01830880	         -0.07499999	         -0.10951435	          0.00000000	          0.00000000	          0.00000000	          0.00000000	         -2.51648920	          0.00000000	
          1.01600000	          0.00000000	          0.00000000	          0.00000000	          0.00000000	          0.00000000	          0.00000000	         15.16775660	        350.72356121	         21.22167344	          0.01860146	         -0.07499999	         -0.10924190	          0.00000000	          0.00000000	          0.00000000	          0.00000000	         -2.71927199	          0.00000000	
          1.02000000	          0.00000000	          0.00000000	          0.00000000	          0.00000000	          0.00000000	          0.00000000	         16.58327818	        366.74280320	         22.23203522	          0.01879157	         -0.07499999	         -0.10899342	          0.00000000	          0.00000000	          0.00000000	          0.00000000	         -2.94102216	          0.00000000	
          1.02400000	          0.00000000	          0.00000000	          0.00000000	          0.00000000	          0.00000000	          0.00000000	         17.77200729	        384.78566384	         23.26322796	          0.01891007	         -0.07499999	         -0.10873687	          0.00000000	          0.00000000	          0.00000000	          0.00000000	         -3.17956188	          0.00000000	
          1.02800000	          0.00000000	          0.00000000	          0.00000000	          0.00000000	          0.00000000	          0.00000000	         18.82459504	        404.63849359	         24.32557743	          0.01897789	         -0.07499999	         -0.10847661	          0.00000000	          0.00000000	          0.00000000	          0.00000000	         -3.43292831	          0.00000000	
          1.03200000	          0.00000000	          0.00000000	          0.00000000	          0.00000000	          0.00000000	          0.00000000	         19.86232072	        426.04582523	         25.40475841	          0.01896210	         -0.07499999	         -0.10826266	          0.00000000	          0.00000000	          0.00000000	          0.00000000	         -3.69958589	          0.00000000	
          1.03600000	          0.00000000	          0.00000000	          0.00000000	          0.00000000	          0.00000000	          0.00000000	         21.00159345	        448.81964201	         26.45333517	          0.01883798	         -0.07499999	         -0.10811533	          0.00000000	          0.00000000	          0.00000000	          0.00000000	         -3.97833920	          0.00000000	
          1.04000000	          0.00000000	          0.00000000	          0.00000000	          0.00000000	          0.00000000	          0.00000000	         22.34194778	        472.81819265	         27.43110750	          0.01863953	         -0.07499999	         -0.10800334	          0.00000000	          0.00000000	          0.00000000	          0.00000000	         -4.26802155	          0.00000000	
          1.04400000	          0.00000000	          0.00000000	          0.00000000	          0.00000000	          0.00000000	          0.00000000	         23.98126087	        497.83699754	         28.33579461	          0.01844129	         -0.07499999	         -0.10789376	          0.00000000	          0.00000000	          0.00000000	          0.00000000	         -4.56720884	          0.00000000	
          1.04800000	          0.00000000	          0.00000000	          0.00000000	          0.00000000	          0.00000000	          0.00000000	         26.02383846	        523.57103099	         29.19089271	          0.01829095	         -0.07499999	         -0.10778108	          0.00000000	          0.00000000	          0.00000000	          0.00000000	         -4.87417300	          0.00000000	
          1.05200000	          0.00000000	          0.00000000	          0.00000000	          0.00000000	          0.00000000	          0.00000000	         28.55718908	        549.69201271	         30.01960122	          0.01818583	         -0.07499999	         -0.10766919	          0.00000000	          0.00000000	          0.00000000	          0.00000000	         -5.18702843	          0.00000000	
          1.05600000	          0.00000000	          0.00000000	          0.00000000	          0.00000000	          0.00000000	          0.00000000	         31.62426405	        575.94969060	         30.84397250	          0.01812059	         -0.07499999	         -0.10754499	          0.00000000	          0.00000000	          0.00000000	          0.00000000	         -5.50382014	          0.00000000	
